<?xml version="1.0" encoding="UTF-8"?>
<svg id="Capa_1" data-name="Capa 1" xmlns="http://www.w3.org/2000/svg" viewBox="0 0 2309.67 322.34">
  <path d="M108.75,5.36v311.61H0V5.36h108.75Z"/>
  <path d="M253.09,317.46V5.36h235.05c146.3,0,222.37,62.42,222.37,156.05s-79.49,156.05-225.78,156.05h-231.63ZM362.81,247.24h116.06c76.56,0,122.4-28.28,122.4-85.83s-48.28-85.83-124.84-85.83h-113.62v171.65Z"/>
  <path d="M1026.53,0c138.01,0,252.6,44.38,252.6,161.41s-114.6,160.92-252.12,160.92-254.07-46.81-254.07-160.92S889.99,0,1026.53,0ZM1169.41,161.41c0-65.83-61.45-87.29-142.88-87.29s-143.86,21.46-143.86,87.29,62.91,86.31,144.34,86.31,142.39-22.92,142.39-86.31Z"/>
  <path d="M1775.91,316.97h-144.83l-180.43-223.34v223.34h-109.23V5.36h145.81l178.48,224.32V5.36h110.21v311.61Z"/>
  <path d="M2014.64,317.46v-97.53L1834.7,5.36h119.47l118.01,136.05,118.5-136.05h118.99l-185.31,214.08v97.53l-109.72.49Z"/>
</svg>